<?xml version="1.0" encoding="iso-8859-1"?>
<!-- Uploaded to: SVG Repo, www.svgrepo.com, Transformed by: SVG Repo Mixer Tools -->
<svg version="1.1" id="Layer_1" xmlns="http://www.w3.org/2000/svg" xmlns:xlink="http://www.w3.org/1999/xlink" 
	 viewBox="0 0 512.001 512.001" xml:space="preserve">
<rect x="7.287" y="7.286" style="fill:#ED1F34;" width="497.43" height="497.43"/>
<polygon style="fill:#FFE000;" points="7.287,7.286 7.287,504.714 333.379,256 "/>
<polygon style="fill:#333333;" points="7.287,7.286 7.287,504.714 206.258,256 "/>
<circle style="fill:#FFFFFF;" cx="86.641" cy="256" r="36.767"/>
<path d="M504.715,0H7.287c-0.04,0-0.079,0.006-0.119,0.006C7.065,0.008,6.961,0.011,6.857,0.018
	C6.774,0.023,6.691,0.026,6.609,0.034C6.549,0.04,6.49,0.047,6.43,0.055C6.345,0.064,6.26,0.077,6.175,0.09
	C6.083,0.104,5.992,0.118,5.901,0.136c-0.063,0.012-0.126,0.026-0.188,0.04C5.639,0.192,5.565,0.211,5.492,0.23
	C5.398,0.253,5.304,0.277,5.211,0.305C5.149,0.323,5.088,0.342,5.027,0.361C4.954,0.385,4.883,0.413,4.811,0.438
	c-0.09,0.034-0.18,0.065-0.269,0.101c-0.057,0.024-0.114,0.047-0.17,0.072C4.293,0.645,4.215,0.684,4.137,0.722
	c-0.08,0.038-0.16,0.075-0.239,0.117c-0.05,0.027-0.1,0.053-0.15,0.081c-0.09,0.05-0.177,0.105-0.265,0.159
	C3.417,1.12,3.35,1.158,3.284,1.201C3.241,1.23,3.197,1.259,3.154,1.288C3.057,1.356,2.964,1.428,2.87,1.5
	C2.826,1.533,2.779,1.562,2.735,1.597c-0.013,0.01-0.023,0.022-0.036,0.031c-0.037,0.03-0.073,0.062-0.11,0.093
	c-0.09,0.075-0.175,0.156-0.262,0.237C2.27,2.011,2.209,2.062,2.154,2.117c-0.033,0.032-0.063,0.067-0.095,0.1
	c-0.072,0.074-0.141,0.152-0.21,0.23c-0.06,0.068-0.126,0.134-0.183,0.204C1.653,2.666,1.642,2.683,1.63,2.698
	C1.609,2.724,1.591,2.75,1.571,2.776c-0.025,0.032-0.053,0.06-0.078,0.092C1.46,2.911,1.434,2.957,1.402,3.001
	c-0.09,0.123-0.176,0.248-0.257,0.375c-0.053,0.083-0.103,0.166-0.152,0.25c-0.068,0.119-0.134,0.238-0.196,0.36
	c-0.05,0.099-0.098,0.198-0.143,0.298C0.603,4.396,0.556,4.509,0.51,4.624c-0.043,0.11-0.084,0.221-0.122,0.334
	C0.351,5.067,0.316,5.178,0.285,5.29C0.25,5.412,0.219,5.532,0.191,5.655c-0.006,0.026-0.015,0.052-0.02,0.078
	c-0.004,0.02-0.011,0.04-0.015,0.06c-0.013,0.061-0.02,0.123-0.031,0.184C0.102,6.1,0.083,6.222,0.067,6.345
	C0.06,6.399,0.05,6.453,0.044,6.508C0.037,6.565,0.036,6.624,0.032,6.683C0.022,6.798,0.015,6.914,0.011,7.03
	C0.008,7.1,0.004,7.17,0.003,7.24c0,0.015-0.002,0.03-0.002,0.046v497.427c0,0.016,0.002,0.031,0.002,0.047
	c0,0.07,0.005,0.14,0.008,0.21c0.004,0.116,0.011,0.232,0.021,0.346c0.005,0.059,0.006,0.118,0.012,0.176
	c0.006,0.054,0.016,0.108,0.024,0.162c0.016,0.123,0.035,0.246,0.057,0.368c0.011,0.061,0.018,0.123,0.031,0.184
	c0.004,0.02,0.011,0.04,0.015,0.06c0.006,0.027,0.014,0.052,0.02,0.079c0.028,0.122,0.059,0.243,0.094,0.364
	c0.032,0.112,0.066,0.223,0.103,0.332c0.038,0.113,0.079,0.224,0.123,0.336c0.045,0.114,0.093,0.227,0.143,0.339
	c0.045,0.1,0.093,0.199,0.143,0.298c0.062,0.121,0.128,0.241,0.197,0.359c0.049,0.085,0.099,0.168,0.152,0.25
	c0.081,0.127,0.167,0.251,0.257,0.375c0.032,0.044,0.058,0.089,0.091,0.133c0.021,0.028,0.046,0.051,0.068,0.08
	c0.021,0.026,0.039,0.053,0.06,0.08c0.015,0.019,0.029,0.04,0.044,0.059c0.078,0.094,0.166,0.183,0.25,0.274
	c0.013,0.014,0.026,0.029,0.04,0.044c0.049,0.053,0.095,0.109,0.145,0.16c0.018,0.018,0.035,0.037,0.053,0.055
	c0.066,0.065,0.139,0.125,0.207,0.188c0.102,0.094,0.202,0.19,0.308,0.278c0.019,0.015,0.037,0.03,0.056,0.046
	c0.003,0.003,0.006,0.006,0.01,0.008c0.01,0.008,0.021,0.013,0.031,0.021c0.029,0.023,0.06,0.042,0.089,0.064
	C3,510.6,3.148,510.709,3.301,510.81c0.083,0.054,0.168,0.103,0.252,0.153c0.071,0.044,0.14,0.089,0.213,0.13
	c0.01,0.006,0.019,0.012,0.029,0.018c0.063,0.034,0.129,0.063,0.193,0.095c0.084,0.043,0.169,0.083,0.254,0.122
	c0.159,0.073,0.321,0.139,0.485,0.202c0.054,0.02,0.106,0.045,0.16,0.064c0.031,0.011,0.063,0.019,0.095,0.029
	c0.175,0.058,0.354,0.107,0.534,0.152c0.066,0.017,0.131,0.036,0.197,0.051c0.095,0.021,0.191,0.037,0.288,0.054
	c0.07,0.012,0.139,0.022,0.209,0.032c0.046,0.007,0.092,0.015,0.138,0.021c0.049,0.007,0.097,0.017,0.146,0.023
	C6.751,511.983,7.011,512,7.275,512c0.003,0,0.005,0.001,0.008,0.001h0.001c0.002,0,0.003,0,0.003,0h431.104
	c4.025,0,7.287-3.262,7.287-7.286s-3.262-7.287-7.287-7.287H28.857l308.941-235.633c1.806-1.379,2.867-3.522,2.867-5.794
	s-1.061-4.415-2.867-5.794L28.857,14.573h468.571v482.854h-25.876c-4.025,0-7.286,3.262-7.286,7.287s3.262,7.286,7.286,7.286h33.162
	c4.025,0,7.286-3.262,7.286-7.286V7.286C512.001,3.262,508.739,0,504.715,0z M14.574,28.059L196.927,256L14.574,483.941V28.059z
	 M50.032,462.947l161.916-202.395c2.129-2.661,2.129-6.443,0-9.104L50.032,49.053L321.363,256L50.032,462.947z"/>
</svg>